name ./resultDataOpenSim/trcMotMarkerGrf/sub10/grf-02-06.mot
datacolumns 19
datarows 12
range 1.63600000 1.68000000
endheader

                time	     ground_force_vx	     ground_force_vy	     ground_force_vz	     ground_force_px	     ground_force_py	     ground_force_pz	   l_ground_force_vx	   l_ground_force_vy	   l_ground_force_vz	   l_ground_force_px	   l_ground_force_py	   l_ground_force_pz	     ground_torque_x	     ground_torque_y	     ground_torque_z	   l_ground_torque_x	   l_ground_torque_y	   l_ground_torque_z	
          1.63600000	          5.48010015	        462.49901589	        -34.19618064	          0.69386450	          0.00000000	          0.15364075	          0.00000000	          0.00000000	          0.00000000	          0.00000000	          0.00000000	          0.00000000	          0.00000000	          2.47460236	          0.00000000	          0.00000000	          0.00000000	          0.00000000	
          1.64000000	          8.62635793	        464.36053336	        -34.68685164	          0.69506829	          0.00000000	          0.15358676	          0.00000000	          0.00000000	          0.00000000	          0.00000000	          0.00000000	          0.00000000	          0.00000000	          2.51918306	          0.00000000	          0.00000000	          0.00000000	          0.00000000	
          1.64400000	         11.02748017	        466.55067845	        -35.45070295	          0.69648230	          0.00000000	          0.15353212	          0.00000000	          0.00000000	          0.00000000	          0.00000000	          0.00000000	          0.00000000	          0.00000000	          2.62152784	          0.00000000	          0.00000000	          0.00000000	          0.00000000	
          1.64800000	         12.42345150	        469.13674584	        -36.37289081	          0.69812310	          0.00000000	          0.15346431	          0.00000000	          0.00000000	          0.00000000	          0.00000000	          0.00000000	          0.00000000	          0.00000000	          2.78026117	          0.00000000	          0.00000000	          0.00000000	          0.00000000	
          1.65200000	         12.81676445	        472.14681751	        -37.30779761	          0.69995659	          0.00000000	          0.15337968	          0.00000000	          0.00000000	          0.00000000	          0.00000000	          0.00000000	          0.00000000	          0.00000000	          2.97723039	          0.00000000	          0.00000000	          0.00000000	          0.00000000	
          1.65600000	         12.46056128	        475.57972669	        -38.10959809	          0.70192137	          0.00000000	          0.15327815	          0.00000000	          0.00000000	          0.00000000	          0.00000000	          0.00000000	          0.00000000	          0.00000000	          3.18099895	          0.00000000	          0.00000000	          0.00000000	          0.00000000	
          1.66000000	         11.78627654	        479.42521376	        -38.66621115	          0.70394165	          0.00000000	          0.15316215	          0.00000000	          0.00000000	          0.00000000	          0.00000000	          0.00000000	          0.00000000	          0.00000000	          3.35444788	          0.00000000	          0.00000000	          0.00000000	          0.00000000	
          1.66400000	         11.28823107	        483.66896323	        -38.92795826	          0.70593314	          0.00000000	          0.15304153	          0.00000000	          0.00000000	          0.00000000	          0.00000000	          0.00000000	          0.00000000	          0.00000000	          3.46472721	          0.00000000	          0.00000000	          0.00000000	          0.00000000	
          1.66800000	         11.38883586	        488.28550625	        -38.92085166	          0.70782295	          0.00000000	          0.15293007	          0.00000000	          0.00000000	          0.00000000	          0.00000000	          0.00000000	          0.00000000	          0.00000000	          3.49275265	          0.00000000	          0.00000000	          0.00000000	          0.00000000	
          1.67200000	         12.32484161	        493.23585924	        -38.74180762	          0.70958017	          0.00000000	          0.15284013	          0.00000000	          0.00000000	          0.00000000	          0.00000000	          0.00000000	          0.00000000	          0.00000000	          3.43926828	          0.00000000	          0.00000000	          0.00000000	          0.00000000	
          1.67600000	         14.09449373	        498.47651342	        -38.54032110	          0.71122328	          0.00000000	          0.15277753	          0.00000000	          0.00000000	          0.00000000	          0.00000000	          0.00000000	          0.00000000	          0.00000000	          3.32543063	          0.00000000	          0.00000000	          0.00000000	          0.00000000	
          1.68000000	         16.47589649	        503.97198219	        -38.49113077	          0.71279886	          0.00000000	          0.15273827	          0.00000000	          0.00000000	          0.00000000	          0.00000000	          0.00000000	          0.00000000	          0.00000000	          3.18761556	          0.00000000	          0.00000000	          0.00000000	          0.00000000	
